<?xml version="1.0" encoding="UTF-8"?>
<!DOCTYPE svg PUBLIC "-//W3C//DTD SVG 1.1//EN" "http://www.w3.org/Graphics/SVG/1.1/DTD/svg11.dtd">
<svg version="1.1" xmlns="http://www.w3.org/2000/svg" xmlns:xlink="http://www.w3.org/1999/xlink" x="0" y="0" width="216" height="104" viewBox="0, 0, 216, 104">
  <g id="Background">
    <rect x="0" y="0" width="216" height="104" fill="#FFFFFF"/>
  </g>
  <g id="Name" transform="scale(1,-1) translate(0,-104)">
    <path d="M 67.7479,80.1166 C 67.7479,79.831 67.7122,79.5811 67.6408,79.3669 C 67.5694,79.1527 67.4722,78.9683 67.3493,78.8136 C 67.2263,78.6589 67.0835,78.5339 66.9209,78.4387 C 66.7582,78.3435 66.5896,78.2721 66.4151,78.2245 L 66.4151,78.2007 C 66.6293,78.161 66.8296,78.0857 67.016,77.9746 C 67.2025,77.8635 67.3651,77.7247 67.504,77.5581 C 67.6428,77.3915 67.7539,77.1952 67.8372,76.9691 C 67.9205,76.7429 67.9621,76.495 67.9621,76.2253 C 67.9621,75.9 67.9066,75.6025 67.7955,75.3328 C 67.6844,75.0631 67.5119,74.829 67.2778,74.6307 C 67.0438,74.4324 66.7483,74.2777 66.3913,74.1666 C 66.0343,74.0555 65.6099,74 65.118,74 L 63.4401,74 L 63.4401,82.211 L 65.0228,82.211 C 65.5067,82.211 65.9213,82.1614 66.2664,82.0623 C 66.6115,81.9631 66.8951,81.8223 67.1172,81.6398 C 67.3393,81.4573 67.5,81.2372 67.5992,80.9794 C 67.6983,80.7215 67.7479,80.4339 67.7479,80.1166 z
M 66.7007,80.0809 C 66.7007,80.4617 66.5658,80.7751 66.2961,81.021 C 66.0264,81.2669 65.6019,81.3899 65.0228,81.3899 L 64.4754,81.3899 L 64.4754,78.5577 L 65.0109,78.5577 C 65.5662,78.5577 65.9867,78.6926 66.2723,78.9623 C 66.5579,79.232 66.7007,79.6049 66.7007,80.0809 z
M 66.8554,76.2967 C 66.8554,76.741 66.7106,77.092 66.4211,77.3499 C 66.1315,77.6077 65.717,77.7366 65.1775,77.7366 L 64.4754,77.7366 L 64.4754,74.8568 L 65.118,74.8568 C 65.7289,74.8568 66.1712,74.9778 66.4449,75.2198 C 66.7186,75.4617 66.8554,75.8207 66.8554,76.2967 z
M 73.2338,74 L 72.3532,74 L 72.3532,74.6426 L 72.3294,74.6426 C 72.3056,74.595 72.254,74.5256 72.1747,74.4344 C 72.0954,74.3431 71.9942,74.2559 71.8713,74.1726 C 71.7483,74.0893 71.5995,74.0159 71.425,73.9524 C 71.2505,73.8889 71.0561,73.8572 70.8419,73.8572 C 70.588,73.8572 70.36,73.8949 70.1577,73.9702 C 69.9554,74.0456 69.7828,74.1666 69.64,74.3332 C 69.4972,74.4998 69.3881,74.716 69.3128,74.9818 C 69.2374,75.2475 69.1997,75.5748 69.1997,75.9635 L 69.1997,79.712 L 70.1636,79.712 L 70.1636,76.0349 C 70.1636,75.5589 70.241,75.2198 70.3957,75.0174 C 70.5504,74.8152 70.7903,74.714 71.1156,74.714 C 71.3933,74.714 71.6273,74.7834 71.8177,74.9223 C 72.0081,75.0611 72.1588,75.1979 72.2699,75.3328 L 72.2699,79.712 L 73.2338,79.712 L 73.2338,74 z
M 77.8272,74 L 77.8272,77.6771 C 77.8272,78.161 77.7459,78.5081 77.5833,78.7184 C 77.4206,78.9286 77.1727,79.0337 76.8395,79.0337 C 76.5539,79.0337 76.3159,78.9623 76.1255,78.8195 C 75.9351,78.6767 75.7844,78.5379 75.6733,78.403 L 75.6733,74 L 74.7094,74 L 74.7094,79.712 L 75.59,79.712 L 75.59,79.0694 L 75.6138,79.0694 C 75.6376,79.117 75.6892,79.1864 75.7685,79.2777 C 75.8478,79.3689 75.951,79.4562 76.0779,79.5395 C 76.2048,79.6228 76.3556,79.6961 76.5301,79.7596 C 76.7046,79.8231 76.903,79.8548 77.1251,79.8548 C 77.379,79.8548 77.609,79.8171 77.8153,79.7418 C 78.0216,79.6664 78.1961,79.5454 78.3389,79.3788 C 78.4817,79.2122 78.5928,78.996 78.6721,78.7303 C 78.7514,78.4645 78.7911,78.1372 78.7911,77.7485 L 78.7911,74 L 77.8272,74 z
M 79.9692,76.7727 C 79.9692,77.3518 80.0446,77.8358 80.1953,78.2245 C 80.346,78.6132 80.5404,78.9266 80.7784,79.1646 C 81.0164,79.4026 81.2861,79.5712 81.5876,79.6704 C 81.8891,79.7695 82.1905,79.8191 82.492,79.8191 C 82.6745,79.8191 82.8331,79.8052 82.968,79.7774 C 83.1029,79.7497 83.2139,79.716 83.3012,79.6763 L 83.3012,82.4133 L 84.2651,82.5204 L 84.2651,74 L 83.3845,74 L 83.3845,74.6069 L 83.3607,74.6069 C 83.3369,74.5593 83.2933,74.4939 83.2298,74.4106 C 83.1663,74.3273 83.0791,74.244 82.968,74.1607 C 82.8569,74.0774 82.7181,74.006 82.5515,73.9464 C 82.3849,73.8869 82.1905,73.8572 81.9684,73.8572 C 81.6987,73.8572 81.4428,73.9107 81.2009,74.0179 C 80.9589,74.125 80.7467,74.2955 80.5642,74.5296 C 80.3817,74.7636 80.237,75.0651 80.1299,75.434 C 80.0228,75.8029 79.9692,76.2491 79.9692,76.7727 z
M 82.2302,74.714 C 82.3809,74.714 82.5158,74.7338 82.6348,74.7735 C 82.7538,74.8132 82.8569,74.8628 82.9442,74.9223 C 83.0315,74.9818 83.1049,75.0432 83.1644,75.1067 C 83.2239,75.1702 83.2695,75.2257 83.3012,75.2733 L 83.3012,78.7957 C 83.2139,78.8512 83.1128,78.8988 82.9978,78.9385 C 82.8827,78.9782 82.7379,78.998 82.5634,78.998 C 82.3413,78.998 82.133,78.9603 81.9387,78.885 C 81.7443,78.8096 81.5757,78.6846 81.4329,78.5101 C 81.2901,78.3356 81.1771,78.1095 81.0938,77.8318 C 81.0105,77.5541 80.9688,77.213 80.9688,76.8084 C 80.9688,76.4117 81.0025,76.0805 81.07,75.8148 C 81.1374,75.549 81.2306,75.3348 81.3496,75.1722 C 81.4686,75.0095 81.6035,74.8925 81.7542,74.8211 C 81.9049,74.7497 82.0636,74.714 82.2302,74.714 z
M 89.4059,77.7842 C 89.4059,77.5383 89.398,77.3261 89.3821,77.1476 C 89.3662,76.9691 89.3504,76.8124 89.3345,76.6775 L 86.419,76.6775 C 86.4507,76.0032 86.5955,75.5073 86.8534,75.19 C 87.1112,74.8727 87.4821,74.714 87.966,74.714 C 88.1326,74.714 88.2833,74.7338 88.4182,74.7735 C 88.5531,74.8132 88.6701,74.8608 88.7693,74.9163 C 88.8684,74.9718 88.9517,75.0274 89.0192,75.0829 C 89.0866,75.1384 89.1362,75.1821 89.1679,75.2138 L 89.5249,74.5355 C 89.4852,74.4958 89.4257,74.4383 89.3464,74.363 C 89.2671,74.2876 89.16,74.2122 89.0251,74.1368 C 88.8902,74.0615 88.7236,73.996 88.5253,73.9405 C 88.327,73.885 88.0929,73.8572 87.8232,73.8572 C 87.4662,73.8572 87.1429,73.9167 86.8534,74.0357 C 86.5638,74.1547 86.3179,74.3392 86.1156,74.5891 C 85.9133,74.839 85.7566,75.1563 85.6455,75.5411 C 85.5344,75.9258 85.4789,76.3879 85.4789,76.9274 C 85.4789,77.4351 85.5364,77.8735 85.6515,78.2424 C 85.7665,78.6113 85.9232,78.9147 86.1215,79.1527 C 86.3198,79.3907 86.5499,79.5672 86.8117,79.6823 C 87.0735,79.7973 87.3551,79.8548 87.6566,79.8548 C 88.204,79.8548 88.6324,79.6823 88.9418,79.3372 C 89.2512,78.9921 89.4059,78.4744 89.4059,77.7842 z
M 87.5971,79.0694 C 87.256,79.0694 86.9823,78.9266 86.776,78.641 C 86.5697,78.3554 86.4507,77.9429 86.419,77.4034 L 88.5015,77.4034 C 88.5094,77.4431 88.5154,77.5006 88.5194,77.576 C 88.5233,77.6513 88.5253,77.7326 88.5253,77.8199 C 88.5253,78.2166 88.446,78.524 88.2873,78.7422 C 88.1286,78.9603 87.8986,79.0694 87.5971,79.0694 z
M 93.1544,78.5577 C 93.0909,78.6291 92.9759,78.7263 92.8093,78.8493 C 92.6427,78.9722 92.4245,79.0337 92.1548,79.0337 C 91.9009,79.0337 91.7066,78.9742 91.5717,78.8552 C 91.4368,78.7362 91.3694,78.5934 91.3694,78.4268 C 91.3694,78.2126 91.4309,78.0361 91.5539,77.8973 C 91.6768,77.7584 91.8652,77.6097 92.1191,77.451 L 92.4761,77.2368 C 92.8648,77.0067 93.1703,76.7588 93.3924,76.4931 C 93.6145,76.2273 93.7256,75.8842 93.7256,75.4637 C 93.7256,75.0115 93.5689,74.6307 93.2556,74.3213 C 92.9422,74.0119 92.492,73.8572 91.9049,73.8572 C 91.6748,73.8572 91.4725,73.881 91.298,73.9286 C 91.1235,73.9762 90.9707,74.0317 90.8399,74.0952 C 90.709,74.1587 90.5999,74.2281 90.5126,74.3034 C 90.4253,74.3788 90.3539,74.4482 90.2984,74.5117 L 90.7625,75.2733 C 90.8101,75.2257 90.8676,75.1702 90.9351,75.1067 C 91.0025,75.0432 91.0838,74.9818 91.179,74.9223 C 91.2742,74.8628 91.3813,74.8132 91.5003,74.7735 C 91.6193,74.7338 91.7581,74.714 91.9168,74.714 C 92.2024,74.714 92.4206,74.7775 92.5713,74.9044 C 92.722,75.0313 92.7974,75.186 92.7974,75.3685 C 92.7974,75.5034 92.7796,75.6204 92.7439,75.7196 C 92.7082,75.8187 92.6546,75.908 92.5832,75.9873 C 92.5118,76.0666 92.4245,76.142 92.3214,76.2134 C 92.2183,76.2848 92.0993,76.3641 91.9644,76.4514 L 91.6074,76.6775 C 91.2504,76.9076 90.9707,77.1495 90.7685,77.4034 C 90.5662,77.6573 90.465,77.9825 90.465,78.3792 C 90.465,78.5934 90.5067,78.7898 90.59,78.9683 C 90.6733,79.1467 90.7903,79.3014 90.941,79.4324 C 91.0917,79.5633 91.2683,79.6664 91.4706,79.7418 C 91.6729,79.8171 91.889,79.8548 92.1191,79.8548 C 92.3412,79.8548 92.5316,79.833 92.6903,79.7894 C 92.849,79.7457 92.9858,79.6902 93.1009,79.6228 C 93.2159,79.5553 93.3111,79.4879 93.3865,79.4205 C 93.4618,79.353 93.5233,79.2955 93.5709,79.2479 L 93.1544,78.5577 z
M 94.5229,75.4518 C 94.5229,75.785 94.5864,76.0627 94.7133,76.2848 C 94.8402,76.5069 95.0108,76.6874 95.225,76.8263 C 95.4392,76.9651 95.6911,77.0643 95.9807,77.1238 C 96.2702,77.1833 96.5776,77.213 96.9029,77.213 L 97.2004,77.213 L 97.2004,77.7604 C 97.2004,78.2443 97.1151,78.5775 96.9446,78.76 C 96.774,78.9425 96.534,79.0337 96.2246,79.0337 C 95.939,79.0337 95.701,78.9722 95.5106,78.8493 C 95.3202,78.7263 95.1695,78.6172 95.0584,78.522 L 94.6538,79.1646 C 94.7173,79.2281 94.7986,79.2995 94.8978,79.3788 C 94.9969,79.4581 95.1179,79.5335 95.2607,79.6049 C 95.4035,79.6763 95.5661,79.7358 95.7486,79.7834 C 95.9311,79.831 96.1373,79.8548 96.3674,79.8548 C 96.9545,79.8548 97.3987,79.6922 97.7002,79.3669 C 98.0017,79.0416 98.1524,78.518 98.1524,77.7961 L 98.1524,75.19 C 98.1524,74.9441 98.1603,74.7041 98.1762,74.4701 C 98.1921,74.236 98.2079,74.0793 98.2238,74 L 97.3075,74 L 97.2718,74.6307 L 97.248,74.6307 C 97.2163,74.5593 97.1687,74.478 97.1052,74.3868 C 97.0417,74.2955 96.9624,74.2122 96.8672,74.1368 C 96.772,74.0615 96.657,73.996 96.5221,73.9405 C 96.3872,73.885 96.2286,73.8572 96.0461,73.8572 C 95.8319,73.8572 95.6316,73.8969 95.4452,73.9762 C 95.2587,74.0555 95.0961,74.1666 94.9573,74.3094 C 94.8184,74.4522 94.7113,74.6208 94.636,74.8152 C 94.5606,75.0095 94.5229,75.2217 94.5229,75.4518 z
M 96.2484,74.6783 C 96.3833,74.6783 96.5023,74.6981 96.6054,74.7378 C 96.7085,74.7775 96.7978,74.8251 96.8732,74.8806 C 96.9485,74.9361 97.012,74.9976 97.0636,75.0651 C 97.1151,75.1325 97.1607,75.19 97.2004,75.2376 L 97.2004,76.499 L 96.891,76.4871 C 96.4309,76.4712 96.0818,76.3919 95.8438,76.2491 C 95.6058,76.1063 95.4868,75.8762 95.4868,75.5589 C 95.4868,75.2654 95.5542,75.0452 95.6891,74.8985 C 95.824,74.7517 96.0104,74.6783 96.2484,74.6783 z
M 102.603,74 L 102.603,77.6771 C 102.603,78.1452 102.5356,78.4823 102.4007,78.6886 C 102.2658,78.8949 102.0477,78.998 101.7462,78.998 C 101.5875,78.998 101.4467,78.9782 101.3238,78.9385 C 101.2008,78.8988 101.0917,78.8493 100.9965,78.7898 C 100.9013,78.7303 100.818,78.6648 100.7466,78.5934 C 100.6752,78.522 100.6157,78.4585 100.5681,78.403 L 100.5681,74 L 99.6042,74 L 99.6042,79.712 L 100.4848,79.712 L 100.4848,79.0694 L 100.5086,79.0694 C 100.5483,79.1329 100.6078,79.2102 100.6871,79.3014 C 100.7664,79.3927 100.8656,79.48 100.9846,79.5633 C 101.1036,79.6466 101.2424,79.716 101.4011,79.7715 C 101.5598,79.827 101.7383,79.8548 101.9366,79.8548 C 102.5871,79.8548 103.0473,79.6009 103.317,79.0932 C 103.3725,79.1725 103.4479,79.2578 103.5431,79.3491 C 103.6383,79.4403 103.7494,79.5236 103.8763,79.599 C 104.0032,79.6743 104.146,79.7358 104.3047,79.7834 C 104.4634,79.831 104.6379,79.8548 104.8283,79.8548 C 105.9866,79.8548 106.5657,79.1805 106.5657,77.8318 L 106.5657,74 L 105.6018,74 L 105.6018,77.6771 C 105.6018,78.1452 105.5185,78.4823 105.3519,78.6886 C 105.1853,78.8949 104.9394,78.998 104.6141,78.998 C 104.3444,78.998 104.1203,78.9325 103.9418,78.8017 C 103.7633,78.6707 103.6224,78.5458 103.5193,78.4268 C 103.5352,78.3395 103.5471,78.2463 103.555,78.1471 C 103.5629,78.048 103.5669,77.9429 103.5669,77.8318 L 103.5669,74 L 102.603,74 z
M 110.4451,78.9266 L 109.1956,78.9266 L 109.1956,75.7612 C 109.1956,75.3566 109.2472,75.0809 109.3503,74.9342 C 109.4534,74.7874 109.628,74.714 109.8739,74.714 C 110.0167,74.714 110.1397,74.7338 110.2428,74.7735 C 110.3459,74.8132 110.4213,74.8489 110.4689,74.8806 L 110.5998,74.1071 C 110.5601,74.0754 110.4649,74.0258 110.3142,73.9583 C 110.1635,73.8909 109.9612,73.8572 109.7073,73.8572 C 109.2154,73.8572 108.8465,73.994 108.6006,74.2678 C 108.3547,74.5414 108.2317,74.9956 108.2317,75.6303 L 108.2317,78.9266 L 107.5415,78.9266 L 107.5415,79.5692 L 108.2317,79.712 L 108.3388,81.3066 L 109.1956,81.3066 L 109.1956,79.712 L 110.5641,79.712 L 110.4451,78.9266 z
M 65.6416,66.9266 L 64.4754,66.9266 L 64.4754,62 L 63.5115,62 L 63.5115,66.9266 L 62.8213,66.9266 L 62.8213,67.5692 L 63.5115,67.7001 L 63.5115,68.8425 C 63.5115,69.1519 63.5551,69.4177 63.6424,69.6398 C 63.7297,69.8619 63.8447,70.0444 63.9875,70.1872 C 64.1303,70.33 64.2969,70.4331 64.4873,70.4966 C 64.6777,70.5601 64.88,70.5918 65.0942,70.5918 C 65.3005,70.5918 65.475,70.564 65.6178,70.5085 C 65.7606,70.453 65.8558,70.4093 65.9034,70.3776 L 65.7011,69.5803 C 65.6535,69.612 65.5861,69.6458 65.4988,69.6815 C 65.4115,69.7172 65.3044,69.735 65.1775,69.735 C 64.9474,69.735 64.7729,69.6636 64.6539,69.5208 C 64.5349,69.378 64.4754,69.1162 64.4754,68.7354 L 64.4754,67.712 L 65.7606,67.712 L 65.6416,66.9266 z
M 70.592,62 L 69.7114,62 L 69.7114,62.6426 L 69.6876,62.6426 C 69.6638,62.595 69.6122,62.5256 69.5329,62.4344 C 69.4536,62.3431 69.3524,62.2559 69.2295,62.1726 C 69.1065,62.0893 68.9577,62.0159 68.7832,61.9524 C 68.6087,61.8889 68.4143,61.8572 68.2001,61.8572 C 67.9462,61.8572 67.7182,61.8949 67.5159,61.9702 C 67.3136,62.0456 67.141,62.1666 66.9982,62.3332 C 66.8554,62.4998 66.7463,62.716 66.671,62.9818 C 66.5956,63.2475 66.5579,63.5748 66.5579,63.9635 L 66.5579,67.712 L 67.5218,67.712 L 67.5218,64.0349 C 67.5218,63.5589 67.5992,63.2198 67.7539,63.0174 C 67.9086,62.8152 68.1485,62.714 68.4738,62.714 C 68.7515,62.714 68.9855,62.7834 69.1759,62.9223 C 69.3663,63.0611 69.517,63.1979 69.6281,63.3328 L 69.6281,67.712 L 70.592,67.712 L 70.592,62 z
M 68.2239,69.3542 C 68.2239,69.1717 68.1684,69.025 68.0573,68.9139 C 67.9462,68.8028 67.8114,68.7473 67.6527,68.7473 C 67.494,68.7473 67.3592,68.8028 67.2481,68.9139 C 67.137,69.025 67.0815,69.1717 67.0815,69.3542 C 67.0815,69.5367 67.137,69.6834 67.2481,69.7945 C 67.3592,69.9056 67.494,69.9611 67.6527,69.9611 C 67.8114,69.9611 67.9462,69.9056 68.0573,69.7945 C 68.1684,69.6834 68.2239,69.5367 68.2239,69.3542 z
M 70.0565,69.3542 C 70.0565,69.1717 70.001,69.025 69.8899,68.9139 C 69.7788,68.8028 69.644,68.7473 69.4853,68.7473 C 69.3266,68.7473 69.1918,68.8028 69.0807,68.9139 C 68.9696,69.025 68.9141,69.1717 68.9141,69.3542 C 68.9141,69.5367 68.9696,69.6834 69.0807,69.7945 C 69.1918,69.9056 69.3266,69.9611 69.4853,69.9611 C 69.644,69.9611 69.7788,69.9056 69.8899,69.7945 C 70.001,69.6834 70.0565,69.5367 70.0565,69.3542 z
M 74.5785,66.8671 C 74.5547,66.883 74.5031,66.9028 74.4238,66.9266 C 74.3445,66.9504 74.2374,66.9623 74.1025,66.9623 C 73.801,66.9623 73.565,66.881 73.3945,66.7184 C 73.2239,66.5557 73.1029,66.3792 73.0315,66.1888 L 73.0315,62 L 72.0676,62 L 72.0676,67.712 L 72.9482,67.712 L 72.9482,66.9385 L 72.972,66.9385 C 73.0117,67.0496 73.0632,67.1587 73.1267,67.2658 C 73.1902,67.3729 73.2695,67.4681 73.3647,67.5514 C 73.4599,67.6347 73.5729,67.7001 73.7038,67.7477 C 73.8348,67.7953 73.9914,67.8191 74.1739,67.8191 C 74.3088,67.8191 74.4179,67.8072 74.5012,67.7834 C 74.5845,67.7596 74.6499,67.7398 74.6975,67.7239 L 74.5785,66.8671 z
M 77.9819,62 L 77.9819,70.211 L 82.016,70.211 L 81.9446,69.3899 L 79.0172,69.3899 L 79.0172,66.3554 L 81.7185,66.3554 L 81.7185,65.5343 L 79.0172,65.5343 L 79.0172,62 L 77.9819,62 z
M 82.492,63.4518 C 82.492,63.785 82.5555,64.0627 82.6824,64.2848 C 82.8093,64.5069 82.9799,64.6874 83.1941,64.8263 C 83.4083,64.9651 83.6602,65.0643 83.9498,65.1238 C 84.2393,65.1833 84.5467,65.213 84.872,65.213 L 85.1695,65.213 L 85.1695,65.7604 C 85.1695,66.2443 85.0842,66.5775 84.9137,66.76 C 84.7431,66.9425 84.5031,67.0337 84.1937,67.0337 C 83.9081,67.0337 83.6701,66.9722 83.4797,66.8493 C 83.2893,66.7263 83.1386,66.6172 83.0275,66.522 L 82.6229,67.1646 C 82.6864,67.2281 82.7677,67.2995 82.8669,67.3788 C 82.966,67.4581 83.087,67.5335 83.2298,67.6049 C 83.3726,67.6763 83.5352,67.7358 83.7177,67.7834 C 83.9002,67.831 84.1064,67.8548 84.3365,67.8548 C 84.9236,67.8548 85.3678,67.6922 85.6693,67.3669 C 85.9708,67.0416 86.1215,66.518 86.1215,65.7961 L 86.1215,63.19 C 86.1215,62.9441 86.1294,62.7041 86.1453,62.4701 C 86.1612,62.236 86.177,62.0793 86.1929,62 L 85.2766,62 L 85.2409,62.6307 L 85.2171,62.6307 C 85.1854,62.5593 85.1378,62.478 85.0743,62.3868 C 85.0108,62.2955 84.9315,62.2122 84.8363,62.1368 C 84.7411,62.0615 84.6261,61.996 84.4912,61.9405 C 84.3563,61.885 84.1977,61.8572 84.0152,61.8572 C 83.801,61.8572 83.6007,61.8969 83.4143,61.9762 C 83.2278,62.0555 83.0652,62.1666 82.9264,62.3094 C 82.7875,62.4522 82.6804,62.6208 82.6051,62.8152 C 82.5297,63.0095 82.492,63.2217 82.492,63.4518 z
M 84.2175,62.6783 C 84.3524,62.6783 84.4714,62.6981 84.5745,62.7378 C 84.6776,62.7775 84.7669,62.8251 84.8423,62.8806 C 84.9176,62.9361 84.9811,62.9976 85.0327,63.0651 C 85.0842,63.1325 85.1298,63.19 85.1695,63.2376 L 85.1695,64.499 L 84.8601,64.4871 C 84.4,64.4712 84.0509,64.3919 83.8129,64.2491 C 83.5749,64.1063 83.4559,63.8762 83.4559,63.5589 C 83.4559,63.2654 83.5233,63.0452 83.6582,62.8985 C 83.7931,62.7517 83.9795,62.6783 84.2175,62.6783 z
M 90.5721,62 L 90.5721,65.6771 C 90.5721,66.1452 90.5047,66.4823 90.3698,66.6886 C 90.2349,66.8949 90.0168,66.998 89.7153,66.998 C 89.5566,66.998 89.4158,66.9782 89.2929,66.9385 C 89.1699,66.8988 89.0608,66.8493 88.9656,66.7898 C 88.8704,66.7303 88.7871,66.6648 88.7157,66.5934 C 88.6443,66.522 88.5848,66.4585 88.5372,66.403 L 88.5372,62 L 87.5733,62 L 87.5733,67.712 L 88.4539,67.712 L 88.4539,67.0694 L 88.4777,67.0694 C 88.5174,67.1329 88.5769,67.2102 88.6562,67.3014 C 88.7355,67.3927 88.8347,67.48 88.9537,67.5633 C 89.0727,67.6466 89.2115,67.716 89.3702,67.7715 C 89.5289,67.827 89.7074,67.8548 89.9057,67.8548 C 90.5562,67.8548 91.0164,67.6009 91.2861,67.0932 C 91.3416,67.1725 91.417,67.2578 91.5122,67.3491 C 91.6074,67.4403 91.7185,67.5236 91.8454,67.599 C 91.9723,67.6743 92.1151,67.7358 92.2738,67.7834 C 92.4325,67.831 92.607,67.8548 92.7974,67.8548 C 93.9557,67.8548 94.5348,67.1805 94.5348,65.8318 L 94.5348,62 L 93.5709,62 L 93.5709,65.6771 C 93.5709,66.1452 93.4876,66.4823 93.321,66.6886 C 93.1544,66.8949 92.9085,66.998 92.5832,66.998 C 92.3135,66.998 92.0894,66.9325 91.9109,66.8017 C 91.7324,66.6707 91.5915,66.5458 91.4884,66.4268 C 91.5043,66.3395 91.5162,66.2463 91.5241,66.1471 C 91.532,66.048 91.536,65.9429 91.536,65.8318 L 91.536,62 L 90.5721,62 z
M 96.9386,62 L 95.9747,62 L 95.9747,67.712 L 96.9386,67.712 L 96.9386,62 z
M 96.4626,69.0924 C 96.2643,69.0924 96.1056,69.1559 95.9866,69.2828 C 95.8676,69.4097 95.8081,69.5763 95.8081,69.7826 C 95.8081,69.9809 95.8676,70.1436 95.9866,70.2705 C 96.1056,70.3974 96.2643,70.4609 96.4626,70.4609 C 96.653,70.4609 96.8077,70.3974 96.9267,70.2705 C 97.0457,70.1436 97.1052,69.9809 97.1052,69.7826 C 97.1052,69.5763 97.0457,69.4097 96.9267,69.2828 C 96.8077,69.1559 96.653,69.0924 96.4626,69.0924 z
M 99.3662,63.3328 C 99.3662,63.0948 99.3999,62.9282 99.4674,62.833 C 99.5348,62.7378 99.6518,62.6902 99.8184,62.6902 C 99.9057,62.6902 99.9791,62.6981 100.0386,62.714 C 100.0981,62.7299 100.1437,62.7457 100.1754,62.7616 L 100.2587,62.0476 C 100.2111,62.0238 100.1238,61.9921 99.9969,61.9524 C 99.87,61.9127 99.6994,61.8929 99.4852,61.8929 C 99.1599,61.8929 98.8981,61.9921 98.6998,62.1904 C 98.5015,62.3887 98.4023,62.7418 98.4023,63.2495 L 98.4023,70.4133 L 99.3662,70.5204 L 99.3662,63.3328 z
M 102.0913,62 L 101.1274,62 L 101.1274,67.712 L 102.0913,67.712 L 102.0913,62 z
M 101.6153,69.0924 C 101.417,69.0924 101.2583,69.1559 101.1393,69.2828 C 101.0203,69.4097 100.9608,69.5763 100.9608,69.7826 C 100.9608,69.9809 101.0203,70.1436 101.1393,70.2705 C 101.2583,70.3974 101.417,70.4609 101.6153,70.4609 C 101.8057,70.4609 101.9604,70.3974 102.0794,70.2705 C 102.1984,70.1436 102.2579,69.9809 102.2579,69.7826 C 102.2579,69.5763 102.1984,69.4097 102.0794,69.2828 C 101.9604,69.1559 101.8057,69.0924 101.6153,69.0924 z
M 107.2321,65.7842 C 107.2321,65.5383 107.2242,65.3261 107.2083,65.1476 C 107.1924,64.9691 107.1766,64.8124 107.1607,64.6775 L 104.2452,64.6775 C 104.2769,64.0032 104.4217,63.5073 104.6796,63.19 C 104.9374,62.8727 105.3083,62.714 105.7922,62.714 C 105.9588,62.714 106.1095,62.7338 106.2444,62.7735 C 106.3793,62.8132 106.4963,62.8608 106.5955,62.9163 C 106.6946,62.9718 106.7779,63.0274 106.8454,63.0829 C 106.9128,63.1384 106.9624,63.1821 106.9941,63.2138 L 107.3511,62.5355 C 107.3114,62.4958 107.2519,62.4383 107.1726,62.363 C 107.0933,62.2876 106.9862,62.2122 106.8513,62.1368 C 106.7164,62.0615 106.5498,61.996 106.3515,61.9405 C 106.1532,61.885 105.9191,61.8572 105.6494,61.8572 C 105.2924,61.8572 104.9691,61.9167 104.6796,62.0357 C 104.39,62.1547 104.1441,62.3392 103.9418,62.5891 C 103.7395,62.839 103.5828,63.1563 103.4717,63.5411 C 103.3606,63.9258 103.3051,64.3879 103.3051,64.9274 C 103.3051,65.4351 103.3626,65.8735 103.4777,66.2424 C 103.5927,66.6113 103.7494,66.9147 103.9477,67.1527 C 104.146,67.3907 104.3761,67.5672 104.6379,67.6823 C 104.8997,67.7973 105.1813,67.8548 105.4828,67.8548 C 106.0302,67.8548 106.4586,67.6823 106.768,67.3372 C 107.0774,66.9921 107.2321,66.4744 107.2321,65.7842 z
M 105.4233,67.0694 C 105.0822,67.0694 104.8085,66.9266 104.6022,66.641 C 104.3959,66.3554 104.2769,65.9429 104.2452,65.4034 L 106.3277,65.4034 C 106.3356,65.4431 106.3416,65.5006 106.3456,65.576 C 106.3495,65.6513 106.3515,65.7326 106.3515,65.8199 C 106.3515,66.2166 106.2722,66.524 106.1135,66.7422 C 105.9548,66.9603 105.7248,67.0694 105.4233,67.0694 z
M 115.0385,62 L 114.1579,62 L 114.1579,62.6426 L 114.1341,62.6426 C 114.1103,62.595 114.0587,62.5256 113.9794,62.4344 C 113.9001,62.3431 113.7989,62.2559 113.676,62.1726 C 113.553,62.0893 113.4042,62.0159 113.2297,61.9524 C 113.0552,61.8889 112.8608,61.8572 112.6466,61.8572 C 112.3927,61.8572 112.1647,61.8949 111.9624,61.9702 C 111.7601,62.0456 111.5875,62.1666 111.4447,62.3332 C 111.3019,62.4998 111.1928,62.716 111.1175,62.9818 C 111.0421,63.2475 111.0044,63.5748 111.0044,63.9635 L 111.0044,67.712 L 111.9683,67.712 L 111.9683,64.0349 C 111.9683,63.5589 112.0457,63.2198 112.2004,63.0174 C 112.3551,62.8152 112.595,62.714 112.9203,62.714 C 113.198,62.714 113.432,62.7834 113.6224,62.9223 C 113.8128,63.0611 113.9635,63.1979 114.0746,63.3328 L 114.0746,67.712 L 115.0385,67.712 L 115.0385,62 z
M 119.6319,62 L 119.6319,65.6771 C 119.6319,66.161 119.5506,66.5081 119.388,66.7184 C 119.2253,66.9286 118.9774,67.0337 118.6442,67.0337 C 118.3586,67.0337 118.1206,66.9623 117.9302,66.8195 C 117.7398,66.6767 117.5891,66.5379 117.478,66.403 L 117.478,62 L 116.5141,62 L 116.5141,67.712 L 117.3947,67.712 L 117.3947,67.0694 L 117.4185,67.0694 C 117.4423,67.117 117.4939,67.1864 117.5732,67.2777 C 117.6525,67.3689 117.7557,67.4562 117.8826,67.5395 C 118.0095,67.6228 118.1603,67.6961 118.3348,67.7596 C 118.5093,67.8231 118.7077,67.8548 118.9298,67.8548 C 119.1837,67.8548 119.4137,67.8171 119.62,67.7418 C 119.8263,67.6664 120.0008,67.5454 120.1436,67.3788 C 120.2864,67.2122 120.3975,66.996 120.4768,66.7303 C 120.5561,66.4645 120.5958,66.1372 120.5958,65.7485 L 120.5958,62 L 119.6319,62 z
M 121.7739,64.7727 C 121.7739,65.3518 121.8493,65.8358 122,66.2245 C 122.1507,66.6132 122.3451,66.9266 122.5831,67.1646 C 122.8211,67.4026 123.0908,67.5712 123.3923,67.6704 C 123.6938,67.7695 123.9952,67.8191 124.2967,67.8191 C 124.4792,67.8191 124.6378,67.8052 124.7727,67.7774 C 124.9076,67.7497 125.0186,67.716 125.1059,67.6763 L 125.1059,70.4133 L 126.0698,70.5204 L 126.0698,62 L 125.1892,62 L 125.1892,62.6069 L 125.1654,62.6069 C 125.1416,62.5593 125.098,62.4939 125.0345,62.4106 C 124.971,62.3273 124.8838,62.244 124.7727,62.1607 C 124.6616,62.0774 124.5228,62.006 124.3562,61.9464 C 124.1896,61.8869 123.9952,61.8572 123.7731,61.8572 C 123.5034,61.8572 123.2475,61.9107 123.0056,62.0179 C 122.7636,62.125 122.5514,62.2955 122.3689,62.5296 C 122.1864,62.7636 122.0417,63.0651 121.9346,63.434 C 121.8275,63.8029 121.7739,64.2491 121.7739,64.7727 z
M 124.0349,62.714 C 124.1856,62.714 124.3205,62.7338 124.4395,62.7735 C 124.5585,62.8132 124.6616,62.8628 124.7489,62.9223 C 124.8362,62.9818 124.9096,63.0432 124.9691,63.1067 C 125.0286,63.1702 125.0742,63.2257 125.1059,63.2733 L 125.1059,66.7957 C 125.0186,66.8512 124.9175,66.8988 124.8025,66.9385 C 124.6874,66.9782 124.5426,66.998 124.3681,66.998 C 124.146,66.998 123.9377,66.9603 123.7434,66.885 C 123.549,66.8096 123.3804,66.6846 123.2376,66.5101 C 123.0948,66.3356 122.9818,66.1095 122.8985,65.8318 C 122.8152,65.5541 122.7735,65.213 122.7735,64.8084 C 122.7735,64.4117 122.8072,64.0805 122.8747,63.8148 C 122.9421,63.549 123.0353,63.3348 123.1543,63.1722 C 123.2733,63.0095 123.4082,62.8925 123.5589,62.8211 C 123.7096,62.7497 123.8683,62.714 124.0349,62.714 z
M 66.427,55.0932 L 64.1184,50.8449 L 64.1184,50.8211 L 66.5817,50.8211 L 66.4984,50 L 62.8689,50 L 62.8689,50.6188 L 65.2489,54.9028 L 65.2489,54.9266 L 62.9998,54.9266 L 62.9998,55.712 L 66.427,55.712 L 66.427,55.0932 z
M 68.6047,50 L 67.6408,50 L 67.6408,55.712 L 68.6047,55.712 L 68.6047,50 z
M 68.1287,57.0924 C 67.9304,57.0924 67.7717,57.1559 67.6527,57.2828 C 67.5337,57.4097 67.4742,57.5763 67.4742,57.7826 C 67.4742,57.9809 67.5337,58.1436 67.6527,58.2705 C 67.7717,58.3974 67.9304,58.4609 68.1287,58.4609 C 68.3191,58.4609 68.4738,58.3974 68.5928,58.2705 C 68.7118,58.1436 68.7713,57.9809 68.7713,57.7826 C 68.7713,57.5763 68.7118,57.4097 68.5928,57.2828 C 68.4738,57.1559 68.3191,57.0924 68.1287,57.0924 z
M 73.8883,55.712 L 72.1271,50 L 71.2584,50 L 69.4853,55.712 L 70.5206,55.712 L 71.3536,52.5585 C 71.4409,52.2412 71.5162,51.9476 71.5797,51.6779 C 71.6432,51.4082 71.6828,51.1503 71.6987,50.9044 L 71.7225,50.9044 C 71.7384,51.1503 71.78,51.4042 71.8475,51.666 C 71.9149,51.9278 71.9922,52.2213 72.0795,52.5466 L 72.9601,55.712 L 73.8883,55.712 z
M 75.7328,50 L 74.7689,50 L 74.7689,55.712 L 75.7328,55.712 L 75.7328,50 z
M 75.2568,57.0924 C 75.0585,57.0924 74.8998,57.1559 74.7808,57.2828 C 74.6618,57.4097 74.6023,57.5763 74.6023,57.7826 C 74.6023,57.9809 74.6618,58.1436 74.7808,58.2705 C 74.8998,58.3974 75.0585,58.4609 75.2568,58.4609 C 75.4472,58.4609 75.6019,58.3974 75.7209,58.2705 C 75.8399,58.1436 75.8994,57.9809 75.8994,57.7826 C 75.8994,57.5763 75.8399,57.4097 75.7209,57.2828 C 75.6019,57.1559 75.4472,57.0924 75.2568,57.0924 z
M 78.1604,51.3328 C 78.1604,51.0948 78.1941,50.9282 78.2616,50.833 C 78.329,50.7378 78.446,50.6902 78.6126,50.6902 C 78.6999,50.6902 78.7733,50.6981 78.8328,50.714 C 78.8923,50.7299 78.9379,50.7457 78.9696,50.7616 L 79.0529,50.0476 C 79.0053,50.0238 78.918,49.9921 78.7911,49.9524 C 78.6642,49.9127 78.4936,49.8929 78.2794,49.8929 C 77.9541,49.8929 77.6923,49.9921 77.494,50.1904 C 77.2957,50.3887 77.1965,50.7418 77.1965,51.2495 L 77.1965,58.4133 L 78.1604,58.5204 L 78.1604,51.3328 z
M 84.0152,54.9623 L 83.3012,54.9623 C 83.4837,54.6608 83.5749,54.3197 83.5749,53.9389 C 83.5749,53.6374 83.5253,53.3657 83.4262,53.1238 C 83.327,52.8818 83.1882,52.6775 83.0097,52.5109 C 82.8312,52.3443 82.6209,52.2174 82.379,52.1301 C 82.137,52.0428 81.8772,51.9992 81.5995,51.9992 C 81.544,51.9992 81.4924,51.9992 81.4448,51.9992 C 81.3972,51.9992 81.3456,52.0032 81.2901,52.0111 C 81.1949,51.9714 81.0957,51.908 80.9926,51.8207 C 80.8895,51.7334 80.8379,51.6184 80.8379,51.4756 C 80.8379,51.3566 80.8835,51.2594 80.9748,51.1841 C 81.066,51.1087 81.2147,51.071 81.421,51.071 L 82.1469,51.071 C 82.4166,51.071 82.6665,51.0432 82.8966,50.9877 C 83.1267,50.9322 83.327,50.8429 83.4976,50.72 C 83.6681,50.597 83.801,50.4403 83.8962,50.2499 C 83.9914,50.0595 84.039,49.8294 84.039,49.5597 C 84.039,49.2503 83.9736,48.9687 83.8427,48.7148 C 83.7118,48.4609 83.5273,48.2428 83.2893,48.0603 C 83.0513,47.8778 82.7617,47.735 82.4206,47.6319 C 82.0795,47.5288 81.6987,47.4772 81.2782,47.4772 C 80.6673,47.4772 80.2032,47.6101 79.8859,47.8758 C 79.5686,48.1416 79.4099,48.5244 79.4099,49.0242 C 79.4099,49.2384 79.4476,49.4228 79.523,49.5775 C 79.5983,49.7322 79.6876,49.8671 79.7907,49.9821 C 79.8938,50.0972 79.999,50.1884 80.1061,50.2559 C 80.2131,50.3233 80.2984,50.3768 80.3619,50.4165 L 80.3619,50.4403 C 80.116,50.6228 79.993,50.8885 79.993,51.2376 C 79.993,51.3883 80.0228,51.5192 80.0823,51.6303 C 80.1418,51.7414 80.2092,51.8326 80.2846,51.904 C 80.3599,51.9754 80.4353,52.0329 80.5107,52.0766 C 80.586,52.1202 80.6435,52.1499 80.6832,52.1658 L 80.6832,52.1896 C 80.3897,52.3245 80.1537,52.5367 79.9752,52.8263 C 79.7967,53.1158 79.7074,53.4867 79.7074,53.9389 C 79.7074,54.2562 79.759,54.5359 79.8621,54.7778 C 79.9652,55.0198 80.1041,55.2201 80.2786,55.3788 C 80.4531,55.5375 80.6574,55.6565 80.8915,55.7358 C 81.1255,55.8151 81.3774,55.8548 81.6471,55.8548 C 81.9168,55.8548 82.1707,55.8072 82.4087,55.712 L 84.1461,55.712 L 84.0152,54.9623 z
M 81.3615,50.1785 C 81.1949,50.1785 81.0481,50.1904 80.9212,50.2142 C 80.8498,50.1745 80.7804,50.1269 80.713,50.0714 C 80.6455,50.0159 80.584,49.9484 80.5285,49.8691 C 80.473,49.7898 80.4274,49.6966 80.3917,49.5894 C 80.356,49.4823 80.3381,49.3574 80.3381,49.2146 C 80.3381,48.6037 80.6753,48.2983 81.3496,48.2983 C 81.9287,48.2983 82.3571,48.4113 82.6348,48.6374 C 82.9125,48.8635 83.0513,49.1234 83.0513,49.4169 C 83.0513,49.6946 82.964,49.8909 82.7895,50.006 C 82.615,50.121 82.3809,50.1785 82.0874,50.1785 L 81.3615,50.1785 z
M 82.6348,53.9389 C 82.6348,54.3514 82.5376,54.645 82.3433,54.8195 C 82.1489,54.994 81.9208,55.0813 81.659,55.0813 C 81.3813,55.0813 81.1433,54.994 80.945,54.8195 C 80.7467,54.645 80.6475,54.3514 80.6475,53.9389 C 80.6475,53.5264 80.7467,53.2328 80.945,53.0583 C 81.1433,52.8838 81.3734,52.7965 81.6352,52.7965 C 81.9129,52.7965 82.1489,52.8838 82.3433,53.0583 C 82.5376,53.2328 82.6348,53.5264 82.6348,53.9389 z
M 88.7038,53.7842 C 88.7038,53.5383 88.6959,53.3261 88.68,53.1476 C 88.6641,52.9691 88.6483,52.8124 88.6324,52.6775 L 85.7169,52.6775 C 85.7486,52.0032 85.8934,51.5073 86.1513,51.19 C 86.4091,50.8727 86.78,50.714 87.2639,50.714 C 87.4305,50.714 87.5812,50.7338 87.7161,50.7735 C 87.851,50.8132 87.968,50.8608 88.0672,50.9163 C 88.1663,50.9718 88.2496,51.0274 88.3171,51.0829 C 88.3845,51.1384 88.4341,51.1821 88.4658,51.2138 L 88.8228,50.5355 C 88.7831,50.4958 88.7236,50.4383 88.6443,50.363 C 88.565,50.2876 88.4579,50.2122 88.323,50.1368 C 88.1881,50.0615 88.0215,49.996 87.8232,49.9405 C 87.6249,49.885 87.3908,49.8572 87.1211,49.8572 C 86.7641,49.8572 86.4408,49.9167 86.1513,50.0357 C 85.8617,50.1547 85.6158,50.3392 85.4135,50.5891 C 85.2112,50.839 85.0545,51.1563 84.9434,51.5411 C 84.8323,51.9258 84.7768,52.3879 84.7768,52.9274 C 84.7768,53.4351 84.8343,53.8735 84.9494,54.2424 C 85.0644,54.6113 85.2211,54.9147 85.4194,55.1527 C 85.6177,55.3907 85.8478,55.5672 86.1096,55.6823 C 86.3714,55.7973 86.653,55.8548 86.9545,55.8548 C 87.5019,55.8548 87.9303,55.6823 88.2397,55.3372 C 88.5491,54.9921 88.7038,54.4744 88.7038,53.7842 z
M 86.895,55.0694 C 86.5539,55.0694 86.2802,54.9266 86.0739,54.641 C 85.8676,54.3554 85.7486,53.9429 85.7169,53.4034 L 87.7994,53.4034 C 87.8073,53.4431 87.8133,53.5006 87.8173,53.576 C 87.8212,53.6513 87.8232,53.7326 87.8232,53.8199 C 87.8232,54.2166 87.7439,54.524 87.5852,54.7422 C 87.4265,54.9603 87.1965,55.0694 86.895,55.0694 z
M 92.4523,54.5577 C 92.3888,54.6291 92.2738,54.7263 92.1072,54.8493 C 91.9406,54.9722 91.7224,55.0337 91.4527,55.0337 C 91.1988,55.0337 91.0045,54.9742 90.8696,54.8552 C 90.7347,54.7362 90.6673,54.5934 90.6673,54.4268 C 90.6673,54.2126 90.7288,54.0361 90.8518,53.8973 C 90.9747,53.7584 91.1631,53.6097 91.417,53.451 L 91.774,53.2368 C 92.1627,53.0067 92.4682,52.7588 92.6903,52.4931 C 92.9124,52.2273 93.0235,51.8842 93.0235,51.4637 C 93.0235,51.0115 92.8668,50.6307 92.5535,50.3213 C 92.2401,50.0119 91.7899,49.8572 91.2028,49.8572 C 90.9727,49.8572 90.7704,49.881 90.5959,49.9286 C 90.4214,49.9762 90.2686,50.0317 90.1378,50.0952 C 90.0069,50.1587 89.8978,50.2281 89.8105,50.3034 C 89.7232,50.3788 89.6518,50.4482 89.5963,50.5117 L 90.0604,51.2733 C 90.108,51.2257 90.1655,51.1702 90.233,51.1067 C 90.3004,51.0432 90.3817,50.9818 90.4769,50.9223 C 90.5721,50.8628 90.6792,50.8132 90.7982,50.7735 C 90.9172,50.7338 91.056,50.714 91.2147,50.714 C 91.5003,50.714 91.7185,50.7775 91.8692,50.9044 C 92.0199,51.0313 92.0953,51.186 92.0953,51.3685 C 92.0953,51.5034 92.0775,51.6204 92.0418,51.7196 C 92.0061,51.8187 91.9525,51.908 91.8811,51.9873 C 91.8097,52.0666 91.7224,52.142 91.6193,52.2134 C 91.5162,52.2848 91.3972,52.3641 91.2623,52.4514 L 90.9053,52.6775 C 90.5483,52.9076 90.2686,53.1495 90.0664,53.4034 C 89.8641,53.6573 89.7629,53.9825 89.7629,54.3792 C 89.7629,54.5934 89.8046,54.7898 89.8879,54.9683 C 89.9712,55.1467 90.0882,55.3014 90.2389,55.4324 C 90.3896,55.5633 90.5662,55.6664 90.7685,55.7418 C 90.9708,55.8171 91.1869,55.8548 91.417,55.8548 C 91.6391,55.8548 91.8295,55.833 91.9882,55.7894 C 92.1469,55.7457 92.2837,55.6902 92.3988,55.6228 C 92.5138,55.5553 92.609,55.4879 92.6844,55.4205 C 92.7597,55.353 92.8212,55.2955 92.8688,55.2479 L 92.4523,54.5577 z
M 97.8192,53.7842 C 97.8192,53.5383 97.8113,53.3261 97.7954,53.1476 C 97.7795,52.9691 97.7637,52.8124 97.7478,52.6775 L 94.8323,52.6775 C 94.864,52.0032 95.0088,51.5073 95.2667,51.19 C 95.5245,50.8727 95.8954,50.714 96.3793,50.714 C 96.5459,50.714 96.6966,50.7338 96.8315,50.7735 C 96.9664,50.8132 97.0834,50.8608 97.1826,50.9163 C 97.2817,50.9718 97.365,51.0274 97.4325,51.0829 C 97.4999,51.1384 97.5495,51.1821 97.5812,51.2138 L 97.9382,50.5355 C 97.8985,50.4958 97.839,50.4383 97.7597,50.363 C 97.6804,50.2876 97.5733,50.2122 97.4384,50.1368 C 97.3035,50.0615 97.1369,49.996 96.9386,49.9405 C 96.7403,49.885 96.5062,49.8572 96.2365,49.8572 C 95.8795,49.8572 95.5562,49.9167 95.2667,50.0357 C 94.9771,50.1547 94.7312,50.3392 94.5289,50.5891 C 94.3266,50.839 94.1699,51.1563 94.0588,51.5411 C 93.9477,51.9258 93.8922,52.3879 93.8922,52.9274 C 93.8922,53.4351 93.9497,53.8735 94.0648,54.2424 C 94.1798,54.6113 94.3365,54.9147 94.5348,55.1527 C 94.7331,55.3907 94.9632,55.5672 95.225,55.6823 C 95.4868,55.7973 95.7684,55.8548 96.0699,55.8548 C 96.6173,55.8548 97.0457,55.6823 97.3551,55.3372 C 97.6645,54.9921 97.8192,54.4744 97.8192,53.7842 z
M 96.0104,55.0694 C 95.6693,55.0694 95.3956,54.9266 95.1893,54.641 C 94.983,54.3554 94.864,53.9429 94.8323,53.4034 L 96.9148,53.4034 C 96.9227,53.4431 96.9287,53.5006 96.9327,53.576 C 96.9366,53.6513 96.9386,53.7326 96.9386,53.8199 C 96.9386,54.2166 96.8593,54.524 96.7006,54.7422 C 96.5419,54.9603 96.3119,55.0694 96.0104,55.0694 z
M 100.0564,51.3328 C 100.0564,51.0948 100.0901,50.9282 100.1576,50.833 C 100.225,50.7378 100.342,50.6902 100.5086,50.6902 C 100.5959,50.6902 100.6693,50.6981 100.7288,50.714 C 100.7883,50.7299 100.8339,50.7457 100.8656,50.7616 L 100.9489,50.0476 C 100.9013,50.0238 100.814,49.9921 100.6871,49.9524 C 100.5602,49.9127 100.3896,49.8929 100.1754,49.8929 C 99.8501,49.8929 99.5883,49.9921 99.39,50.1904 C 99.1917,50.3887 99.0925,50.7418 99.0925,51.2495 L 99.0925,58.4133 L 100.0564,58.5204 L 100.0564,51.3328 z
M 102.7696,51.3328 C 102.7696,51.0948 102.8033,50.9282 102.8708,50.833 C 102.9382,50.7378 103.0552,50.6902 103.2218,50.6902 C 103.3091,50.6902 103.3825,50.6981 103.442,50.714 C 103.5015,50.7299 103.5471,50.7457 103.5788,50.7616 L 103.6621,50.0476 C 103.6145,50.0238 103.5272,49.9921 103.4003,49.9524 C 103.2734,49.9127 103.1028,49.8929 102.8886,49.8929 C 102.5633,49.8929 102.3015,49.9921 102.1032,50.1904 C 101.9049,50.3887 101.8057,50.7418 101.8057,51.2495 L 101.8057,58.4133 L 102.7696,58.5204 L 102.7696,51.3328 z
M 106.9941,54.5577 C 106.9306,54.6291 106.8156,54.7263 106.649,54.8493 C 106.4824,54.9722 106.2642,55.0337 105.9945,55.0337 C 105.7406,55.0337 105.5463,54.9742 105.4114,54.8552 C 105.2765,54.7362 105.2091,54.5934 105.2091,54.4268 C 105.2091,54.2126 105.2706,54.0361 105.3936,53.8973 C 105.5165,53.7584 105.7049,53.6097 105.9588,53.451 L 106.3158,53.2368 C 106.7045,53.0067 107.01,52.7588 107.2321,52.4931 C 107.4542,52.2273 107.5653,51.8842 107.5653,51.4637 C 107.5653,51.0115 107.4086,50.6307 107.0953,50.3213 C 106.7819,50.0119 106.3317,49.8572 105.7446,49.8572 C 105.5145,49.8572 105.3122,49.881 105.1377,49.9286 C 104.9632,49.9762 104.8104,50.0317 104.6796,50.0952 C 104.5487,50.1587 104.4396,50.2281 104.3523,50.3034 C 104.265,50.3788 104.1936,50.4482 104.1381,50.5117 L 104.6022,51.2733 C 104.6498,51.2257 104.7073,51.1702 104.7748,51.1067 C 104.8422,51.0432 104.9235,50.9818 105.0187,50.9223 C 105.1139,50.8628 105.221,50.8132 105.34,50.7735 C 105.459,50.7338 105.5978,50.714 105.7565,50.714 C 106.0421,50.714 106.2603,50.7775 106.411,50.9044 C 106.5617,51.0313 106.6371,51.186 106.6371,51.3685 C 106.6371,51.5034 106.6193,51.6204 106.5836,51.7196 C 106.5479,51.8187 106.4943,51.908 106.4229,51.9873 C 106.3515,52.0666 106.2642,52.142 106.1611,52.2134 C 106.058,52.2848 105.939,52.3641 105.8041,52.4514 L 105.4471,52.6775 C 105.0901,52.9076 104.8104,53.1495 104.6082,53.4034 C 104.4059,53.6573 104.3047,53.9825 104.3047,54.3792 C 104.3047,54.5934 104.3464,54.7898 104.4297,54.9683 C 104.513,55.1467 104.63,55.3014 104.7807,55.4324 C 104.9314,55.5633 105.108,55.6664 105.3103,55.7418 C 105.5126,55.8171 105.7287,55.8548 105.9588,55.8548 C 106.1809,55.8548 106.3713,55.833 106.53,55.7894 C 106.6887,55.7457 106.8255,55.6902 106.9406,55.6228 C 107.0556,55.5553 107.1508,55.4879 107.2262,55.4205 C 107.3015,55.353 107.363,55.2955 107.4106,55.2479 L 106.9941,54.5577 z
M 111.8731,54.6053 C 111.8493,54.6291 111.8116,54.6648 111.7601,54.7124 C 111.7085,54.76 111.643,54.8076 111.5637,54.8552 C 111.4844,54.9028 111.3892,54.9445 111.2781,54.9802 C 111.167,55.0159 111.0401,55.0337 110.8973,55.0337 C 110.691,55.0337 110.4987,54.996 110.3202,54.9207 C 110.1417,54.8453 109.987,54.7243 109.8561,54.5577 C 109.7252,54.3911 109.622,54.1749 109.5467,53.9092 C 109.4713,53.6434 109.4336,53.3201 109.4336,52.9393 C 109.4336,52.5188 109.4673,52.1658 109.5348,51.8802 C 109.6022,51.5946 109.6954,51.3665 109.8144,51.196 C 109.9334,51.0254 110.0782,50.9024 110.2488,50.8271 C 110.4193,50.7517 110.6077,50.714 110.814,50.714 C 111.1075,50.714 111.3317,50.7656 111.4864,50.8687 C 111.6411,50.9718 111.7501,51.0551 111.8136,51.1186 L 112.2063,50.4522 C 112.1666,50.4046 112.1091,50.3471 112.0338,50.2797 C 111.9584,50.2122 111.8612,50.1468 111.7422,50.0833 C 111.6232,50.0198 111.4784,49.9663 111.3079,49.9226 C 111.1373,49.879 110.9409,49.8572 110.7188,49.8572 C 110.4015,49.8572 110.104,49.9088 109.8263,50.0119 C 109.5486,50.115 109.3067,50.2856 109.1004,50.5236 C 108.8941,50.7616 108.7315,51.071 108.6125,51.4518 C 108.4935,51.8326 108.434,52.3046 108.434,52.8679 C 108.434,53.4153 108.5054,53.8794 108.6482,54.2602 C 108.791,54.641 108.9774,54.9484 109.2075,55.1825 C 109.4376,55.4165 109.6934,55.5871 109.9751,55.6942 C 110.2567,55.8013 110.5403,55.8548 110.8259,55.8548 C 111.0401,55.8548 111.2285,55.835 111.3912,55.7953 C 111.5538,55.7556 111.6926,55.7061 111.8077,55.6466 C 111.9227,55.5871 112.0179,55.5236 112.0933,55.4562 C 112.1686,55.3887 112.2301,55.3312 112.2777,55.2836 L 111.8731,54.6053 z
M 116.407,50 L 116.407,53.6771 C 116.407,54.161 116.3257,54.5081 116.1631,54.7184 C 116.0004,54.9286 115.7525,55.0337 115.4193,55.0337 C 115.1337,55.0337 114.8957,54.9623 114.7053,54.8195 C 114.5149,54.6767 114.3642,54.5379 114.2531,54.403 L 114.2531,50 L 113.2892,50 L 113.2892,58.4133 L 114.2531,58.5204 L 114.2531,55.1289 L 114.2769,55.1289 C 114.3086,55.1765 114.3582,55.24 114.4257,55.3193 C 114.4931,55.3986 114.5863,55.478 114.7053,55.5573 C 114.8243,55.6366 114.9691,55.7061 115.1397,55.7656 C 115.3102,55.8251 115.5105,55.8548 115.7406,55.8548 C 116.2404,55.8548 116.6371,55.6922 116.9306,55.3669 C 117.2241,55.0416 117.3709,54.5022 117.3709,53.7485 L 117.3709,50 L 116.407,50 z
M 118.4776,51.4518 C 118.4776,51.785 118.5411,52.0627 118.668,52.2848 C 118.7949,52.5069 118.9655,52.6874 119.1797,52.8263 C 119.3939,52.9651 119.6458,53.0643 119.9354,53.1238 C 120.2249,53.1833 120.5323,53.213 120.8576,53.213 L 121.1551,53.213 L 121.1551,53.7604 C 121.1551,54.2443 121.0698,54.5775 120.8993,54.76 C 120.7287,54.9425 120.4887,55.0337 120.1793,55.0337 C 119.8937,55.0337 119.6557,54.9722 119.4653,54.8493 C 119.2749,54.7263 119.1242,54.6172 119.0131,54.522 L 118.6085,55.1646 C 118.672,55.2281 118.7533,55.2995 118.8525,55.3788 C 118.9516,55.4581 119.0726,55.5335 119.2154,55.6049 C 119.3582,55.6763 119.5208,55.7358 119.7033,55.7834 C 119.8858,55.831 120.092,55.8548 120.3221,55.8548 C 120.9092,55.8548 121.3534,55.6922 121.6549,55.3669 C 121.9564,55.0416 122.1071,54.518 122.1071,53.7961 L 122.1071,51.19 C 122.1071,50.9441 122.115,50.7041 122.1309,50.4701 C 122.1468,50.236 122.1626,50.0793 122.1785,50 L 121.2622,50 L 121.2265,50.6307 L 121.2027,50.6307 C 121.171,50.5593 121.1234,50.478 121.0599,50.3868 C 120.9964,50.2955 120.9171,50.2122 120.8219,50.1368 C 120.7267,50.0615 120.6117,49.996 120.4768,49.9405 C 120.3419,49.885 120.1833,49.8572 120.0008,49.8572 C 119.7866,49.8572 119.5863,49.8969 119.3999,49.9762 C 119.2134,50.0555 119.0508,50.1666 118.912,50.3094 C 118.7731,50.4522 118.666,50.6208 118.5907,50.8152 C 118.5153,51.0095 118.4776,51.2217 118.4776,51.4518 z
M 120.2031,50.6783 C 120.338,50.6783 120.457,50.6981 120.5601,50.7378 C 120.6632,50.7775 120.7525,50.8251 120.8279,50.8806 C 120.9032,50.9361 120.9667,50.9976 121.0183,51.0651 C 121.0698,51.1325 121.1154,51.19 121.1551,51.2376 L 121.1551,52.499 L 120.8457,52.4871 C 120.3856,52.4712 120.0365,52.3919 119.7985,52.2491 C 119.5605,52.1063 119.4415,51.8762 119.4415,51.5589 C 119.4415,51.2654 119.5089,51.0452 119.6438,50.8985 C 119.7787,50.7517 119.9651,50.6783 120.2031,50.6783 z
M 125.9627,54.9266 L 124.7965,54.9266 L 124.7965,50 L 123.8326,50 L 123.8326,54.9266 L 123.1424,54.9266 L 123.1424,55.5692 L 123.8326,55.7001 L 123.8326,56.8425 C 123.8326,57.1519 123.8762,57.4177 123.9635,57.6398 C 124.0508,57.8619 124.1658,58.0444 124.3086,58.1872 C 124.4514,58.33 124.618,58.4331 124.8084,58.4966 C 124.9988,58.5601 125.2011,58.5918 125.4153,58.5918 C 125.6216,58.5918 125.7961,58.564 125.9389,58.5085 C 126.0817,58.453 126.1769,58.4093 126.2245,58.3776 L 126.0222,57.5803 C 125.9746,57.612 125.9072,57.6458 125.8199,57.6815 C 125.7326,57.7172 125.6255,57.735 125.4986,57.735 C 125.2685,57.735 125.094,57.6636 124.975,57.5208 C 124.856,57.378 124.7965,57.1162 124.7965,56.7354 L 124.7965,55.712 L 126.0817,55.712 L 125.9627,54.9266 z
M 129.3542,54.9266 L 128.1047,54.9266 L 128.1047,51.7612 C 128.1047,51.3566 128.1563,51.0809 128.2594,50.9342 C 128.3625,50.7874 128.5371,50.714 128.783,50.714 C 128.9258,50.714 129.0488,50.7338 129.1519,50.7735 C 129.255,50.8132 129.3304,50.8489 129.378,50.8806 L 129.5089,50.1071 C 129.4692,50.0754 129.374,50.0258 129.2233,49.9583 C 129.0726,49.8909 128.8703,49.8572 128.6164,49.8572 C 128.1245,49.8572 127.7556,49.994 127.5097,50.2678 C 127.2638,50.5414 127.1408,50.9956 127.1408,51.6303 L 127.1408,54.9266 L 126.4506,54.9266 L 126.4506,55.5692 L 127.1408,55.712 L 127.2479,57.3066 L 128.1047,57.3066 L 128.1047,55.712 L 129.4732,55.712 L 129.3542,54.9266 z
M 131.401,51.3328 C 131.401,51.0948 131.4347,50.9282 131.5022,50.833 C 131.5696,50.7378 131.6866,50.6902 131.8532,50.6902 C 131.9405,50.6902 132.0139,50.6981 132.0734,50.714 C 132.1329,50.7299 132.1785,50.7457 132.2102,50.7616 L 132.2935,50.0476 C 132.2459,50.0238 132.1586,49.9921 132.0317,49.9524 C 131.9048,49.9127 131.7342,49.8929 131.52,49.8929 C 131.1947,49.8929 130.9329,49.9921 130.7346,50.1904 C 130.5363,50.3887 130.4371,50.7418 130.4371,51.2495 L 130.4371,58.4133 L 131.401,58.5204 L 131.401,51.3328 z
M 134.1261,50 L 133.1622,50 L 133.1622,55.712 L 134.1261,55.712 L 134.1261,50 z
M 133.6501,57.0924 C 133.4518,57.0924 133.2931,57.1559 133.1741,57.2828 C 133.0551,57.4097 132.9956,57.5763 132.9956,57.7826 C 132.9956,57.9809 133.0551,58.1436 133.1741,58.2705 C 133.2931,58.3974 133.4518,58.4609 133.6501,58.4609 C 133.8405,58.4609 133.9952,58.3974 134.1142,58.2705 C 134.2332,58.1436 134.2927,57.9809 134.2927,57.7826 C 134.2927,57.5763 134.2332,57.4097 134.1142,57.2828 C 133.9952,57.1559 133.8405,57.0924 133.6501,57.0924 z
M 138.779,54.6053 C 138.7552,54.6291 138.7175,54.6648 138.666,54.7124 C 138.6144,54.76 138.5489,54.8076 138.4696,54.8552 C 138.3903,54.9028 138.2951,54.9445 138.184,54.9802 C 138.0729,55.0159 137.946,55.0337 137.8032,55.0337 C 137.5969,55.0337 137.4046,54.996 137.2261,54.9207 C 137.0476,54.8453 136.8929,54.7243 136.762,54.5577 C 136.6311,54.3911 136.5279,54.1749 136.4526,53.9092 C 136.3772,53.6434 136.3395,53.3201 136.3395,52.9393 C 136.3395,52.5188 136.3732,52.1658 136.4407,51.8802 C 136.5081,51.5946 136.6013,51.3665 136.7203,51.196 C 136.8393,51.0254 136.9841,50.9024 137.1547,50.8271 C 137.3252,50.7517 137.5136,50.714 137.7199,50.714 C 138.0134,50.714 138.2376,50.7656 138.3923,50.8687 C 138.547,50.9718 138.656,51.0551 138.7195,51.1186 L 139.1122,50.4522 C 139.0725,50.4046 139.015,50.3471 138.9397,50.2797 C 138.8643,50.2122 138.7671,50.1468 138.6481,50.0833 C 138.5291,50.0198 138.3843,49.9663 138.2138,49.9226 C 138.0432,49.879 137.8468,49.8572 137.6247,49.8572 C 137.3074,49.8572 137.0099,49.9088 136.7322,50.0119 C 136.4545,50.115 136.2126,50.2856 136.0063,50.5236 C 135.8,50.7616 135.6374,51.071 135.5184,51.4518 C 135.3994,51.8326 135.3399,52.3046 135.3399,52.8679 C 135.3399,53.4153 135.4113,53.8794 135.5541,54.2602 C 135.6969,54.641 135.8833,54.9484 136.1134,55.1825 C 136.3435,55.4165 136.5993,55.5871 136.881,55.6942 C 137.1626,55.8013 137.4462,55.8548 137.7318,55.8548 C 137.946,55.8548 138.1344,55.835 138.2971,55.7953 C 138.4597,55.7556 138.5985,55.7061 138.7136,55.6466 C 138.8286,55.5871 138.9238,55.5236 138.9992,55.4562 C 139.0745,55.3887 139.136,55.3312 139.1836,55.2836 L 138.779,54.6053 z
M 143.3129,50 L 143.3129,53.6771 C 143.3129,54.161 143.2316,54.5081 143.069,54.7184 C 142.9063,54.9286 142.6584,55.0337 142.3252,55.0337 C 142.0396,55.0337 141.8016,54.9623 141.6112,54.8195 C 141.4208,54.6767 141.2701,54.5379 141.159,54.403 L 141.159,50 L 140.1951,50 L 140.1951,58.4133 L 141.159,58.5204 L 141.159,55.1289 L 141.1828,55.1289 C 141.2145,55.1765 141.2641,55.24 141.3316,55.3193 C 141.399,55.3986 141.4922,55.478 141.6112,55.5573 C 141.7302,55.6366 141.875,55.7061 142.0456,55.7656 C 142.2161,55.8251 142.4164,55.8548 142.6465,55.8548 C 143.1463,55.8548 143.543,55.6922 143.8365,55.3669 C 144.13,55.0416 144.2768,54.5022 144.2768,53.7485 L 144.2768,50 L 143.3129,50 z
M 149.3819,53.7842 C 149.3819,53.5383 149.374,53.3261 149.3581,53.1476 C 149.3422,52.9691 149.3264,52.8124 149.3105,52.6775 L 146.395,52.6775 C 146.4267,52.0032 146.5715,51.5073 146.8294,51.19 C 147.0872,50.8727 147.4581,50.714 147.942,50.714 C 148.1086,50.714 148.2593,50.7338 148.3942,50.7735 C 148.5291,50.8132 148.6461,50.8608 148.7453,50.9163 C 148.8444,50.9718 148.9277,51.0274 148.9952,51.0829 C 149.0626,51.1384 149.1122,51.1821 149.1439,51.2138 L 149.5009,50.5355 C 149.4612,50.4958 149.4017,50.4383 149.3224,50.363 C 149.2431,50.2876 149.136,50.2122 149.0011,50.1368 C 148.8662,50.0615 148.6996,49.996 148.5013,49.9405 C 148.303,49.885 148.0689,49.8572 147.7992,49.8572 C 147.4422,49.8572 147.1189,49.9167 146.8294,50.0357 C 146.5398,50.1547 146.2939,50.3392 146.0916,50.5891 C 145.8893,50.839 145.7326,51.1563 145.6215,51.5411 C 145.5104,51.9258 145.4549,52.3879 145.4549,52.9274 C 145.4549,53.4351 145.5124,53.8735 145.6275,54.2424 C 145.7425,54.6113 145.8992,54.9147 146.0975,55.1527 C 146.2958,55.3907 146.5259,55.5672 146.7877,55.6823 C 147.0495,55.7973 147.3311,55.8548 147.6326,55.8548 C 148.18,55.8548 148.6084,55.6823 148.9178,55.3372 C 149.2272,54.9921 149.3819,54.4744 149.3819,53.7842 z
M 147.5731,55.0694 C 147.232,55.0694 146.9583,54.9266 146.752,54.641 C 146.5457,54.3554 146.4267,53.9429 146.395,53.4034 L 148.4775,53.4034 C 148.4854,53.4431 148.4914,53.5006 148.4954,53.576 C 148.4993,53.6513 148.5013,53.7326 148.5013,53.8199 C 148.5013,54.2166 148.422,54.524 148.2633,54.7422 C 148.1046,54.9603 147.8746,55.0694 147.5731,55.0694 z
M 158.4497,50 L 157.3073,50 L 156.5695,52.6299 L 154.0824,52.6299 L 153.3327,50 L 152.2855,50 L 154.963,58.211 L 155.7722,58.211 L 158.4497,50 z
M 156.3434,53.4153 L 155.7008,55.6644 C 155.6135,55.9659 155.5382,56.2535 155.4747,56.5272 C 155.4112,56.8009 155.3755,57.0289 155.3676,57.2114 L 155.3438,57.2114 C 155.3359,57.0289 155.2982,56.8048 155.2308,56.5391 C 155.1633,56.2733 155.086,55.9897 154.9987,55.6882 L 154.3204,53.4153 L 156.3434,53.4153 z
M 163.2573,50 L 162.3767,50 L 162.3767,50.6426 L 162.3529,50.6426 C 162.3291,50.595 162.2775,50.5256 162.1982,50.4344 C 162.1189,50.3431 162.0177,50.2559 161.8948,50.1726 C 161.7718,50.0893 161.623,50.0159 161.4485,49.9524 C 161.274,49.8889 161.0796,49.8572 160.8654,49.8572 C 160.6115,49.8572 160.3835,49.8949 160.1812,49.9702 C 159.9789,50.0456 159.8063,50.1666 159.6635,50.3332 C 159.5207,50.4998 159.4116,50.716 159.3363,50.9818 C 159.2609,51.2475 159.2232,51.5748 159.2232,51.9635 L 159.2232,55.712 L 160.1871,55.712 L 160.1871,52.0349 C 160.1871,51.5589 160.2645,51.2198 160.4192,51.0174 C 160.5739,50.8152 160.8138,50.714 161.1391,50.714 C 161.4168,50.714 161.6508,50.7834 161.8412,50.9223 C 162.0316,51.0611 162.1823,51.1979 162.2934,51.3328 L 162.2934,55.712 L 163.2573,55.712 L 163.2573,50 z
M 167.1367,54.9266 L 165.9705,54.9266 L 165.9705,50 L 165.0066,50 L 165.0066,54.9266 L 164.3164,54.9266 L 164.3164,55.5692 L 165.0066,55.7001 L 165.0066,56.8425 C 165.0066,57.1519 165.0502,57.4177 165.1375,57.6398 C 165.2248,57.8619 165.3398,58.0444 165.4826,58.1872 C 165.6254,58.33 165.792,58.4331 165.9824,58.4966 C 166.1728,58.5601 166.3751,58.5918 166.5893,58.5918 C 166.7956,58.5918 166.9701,58.564 167.1129,58.5085 C 167.2557,58.453 167.3509,58.4093 167.3985,58.3776 L 167.1962,57.5803 C 167.1486,57.612 167.0812,57.6458 166.9939,57.6815 C 166.9066,57.7172 166.7995,57.735 166.6726,57.735 C 166.4425,57.735 166.268,57.6636 166.149,57.5208 C 166.03,57.378 165.9705,57.1162 165.9705,56.7354 L 165.9705,55.712 L 167.2557,55.712 L 167.1367,54.9266 z
M 172.099,54.9623 L 171.385,54.9623 C 171.5675,54.6608 171.6587,54.3197 171.6587,53.9389 C 171.6587,53.6374 171.6091,53.3657 171.51,53.1238 C 171.4108,52.8818 171.272,52.6775 171.0935,52.5109 C 170.915,52.3443 170.7047,52.2174 170.4628,52.1301 C 170.2208,52.0428 169.961,51.9992 169.6833,51.9992 C 169.6278,51.9992 169.5762,51.9992 169.5286,51.9992 C 169.481,51.9992 169.4294,52.0032 169.3739,52.0111 C 169.2787,51.9714 169.1795,51.908 169.0764,51.8207 C 168.9733,51.7334 168.9217,51.6184 168.9217,51.4756 C 168.9217,51.3566 168.9673,51.2594 169.0586,51.1841 C 169.1498,51.1087 169.2985,51.071 169.5048,51.071 L 170.2307,51.071 C 170.5004,51.071 170.7503,51.0432 170.9804,50.9877 C 171.2105,50.9322 171.4108,50.8429 171.5814,50.72 C 171.7519,50.597 171.8848,50.4403 171.98,50.2499 C 172.0752,50.0595 172.1228,49.8294 172.1228,49.5597 C 172.1228,49.2503 172.0574,48.9687 171.9265,48.7148 C 171.7956,48.4609 171.6111,48.2428 171.3731,48.0603 C 171.1351,47.8778 170.8455,47.735 170.5044,47.6319 C 170.1633,47.5288 169.7825,47.4772 169.362,47.4772 C 168.7511,47.4772 168.287,47.6101 167.9697,47.8758 C 167.6524,48.1416 167.4937,48.5244 167.4937,49.0242 C 167.4937,49.2384 167.5314,49.4228 167.6068,49.5775 C 167.6821,49.7322 167.7714,49.8671 167.8745,49.9821 C 167.9776,50.0972 168.0828,50.1884 168.1899,50.2559 C 168.2969,50.3233 168.3822,50.3768 168.4457,50.4165 L 168.4457,50.4403 C 168.1998,50.6228 168.0768,50.8885 168.0768,51.2376 C 168.0768,51.3883 168.1066,51.5192 168.1661,51.6303 C 168.2256,51.7414 168.293,51.8326 168.3684,51.904 C 168.4437,51.9754 168.5191,52.0329 168.5945,52.0766 C 168.6698,52.1202 168.7273,52.1499 168.767,52.1658 L 168.767,52.1896 C 168.4735,52.3245 168.2375,52.5367 168.059,52.8263 C 167.8805,53.1158 167.7912,53.4867 167.7912,53.9389 C 167.7912,54.2562 167.8428,54.5359 167.9459,54.7778 C 168.049,55.0198 168.1879,55.2201 168.3624,55.3788 C 168.5369,55.5375 168.7412,55.6565 168.9753,55.7358 C 169.2093,55.8151 169.4612,55.8548 169.7309,55.8548 C 170.0006,55.8548 170.2545,55.8072 170.4925,55.712 L 172.2299,55.712 L 172.099,54.9623 z
M 169.4453,50.1785 C 169.2787,50.1785 169.1319,50.1904 169.005,50.2142 C 168.9336,50.1745 168.8642,50.1269 168.7968,50.0714 C 168.7293,50.0159 168.6678,49.9484 168.6123,49.8691 C 168.5568,49.7898 168.5112,49.6966 168.4755,49.5894 C 168.4398,49.4823 168.4219,49.3574 168.4219,49.2146 C 168.4219,48.6037 168.7591,48.2983 169.4334,48.2983 C 170.0125,48.2983 170.4409,48.4113 170.7186,48.6374 C 170.9963,48.8635 171.1351,49.1234 171.1351,49.4169 C 171.1351,49.6946 171.0478,49.8909 170.8733,50.006 C 170.6988,50.121 170.4647,50.1785 170.1712,50.1785 L 169.4453,50.1785 z
M 170.7186,53.9389 C 170.7186,54.3514 170.6214,54.645 170.4271,54.8195 C 170.2327,54.994 170.0046,55.0813 169.7428,55.0813 C 169.4651,55.0813 169.2271,54.994 169.0288,54.8195 C 168.8305,54.645 168.7313,54.3514 168.7313,53.9389 C 168.7313,53.5264 168.8305,53.2328 169.0288,53.0583 C 169.2271,52.8838 169.4572,52.7965 169.719,52.7965 C 169.9967,52.7965 170.2327,52.8838 170.4271,53.0583 C 170.6214,53.2328 170.7186,53.5264 170.7186,53.9389 z
M 172.8606,51.4518 C 172.8606,51.785 172.9241,52.0627 173.051,52.2848 C 173.1779,52.5069 173.3485,52.6874 173.5627,52.8263 C 173.7769,52.9651 174.0288,53.0643 174.3184,53.1238 C 174.6079,53.1833 174.9153,53.213 175.2406,53.213 L 175.5381,53.213 L 175.5381,53.7604 C 175.5381,54.2443 175.4528,54.5775 175.2823,54.76 C 175.1117,54.9425 174.8717,55.0337 174.5623,55.0337 C 174.2767,55.0337 174.0387,54.9722 173.8483,54.8493 C 173.6579,54.7263 173.5072,54.6172 173.3961,54.522 L 172.9915,55.1646 C 173.055,55.2281 173.1363,55.2995 173.2355,55.3788 C 173.3346,55.4581 173.4556,55.5335 173.5984,55.6049 C 173.7412,55.6763 173.9038,55.7358 174.0863,55.7834 C 174.2688,55.831 174.475,55.8548 174.7051,55.8548 C 175.2922,55.8548 175.7364,55.6922 176.0379,55.3669 C 176.3394,55.0416 176.4901,54.518 176.4901,53.7961 L 176.4901,51.19 C 176.4901,50.9441 176.498,50.7041 176.5139,50.4701 C 176.5298,50.236 176.5456,50.0793 176.5615,50 L 175.6452,50 L 175.6095,50.6307 L 175.5857,50.6307 C 175.554,50.5593 175.5064,50.478 175.4429,50.3868 C 175.3794,50.2955 175.3001,50.2122 175.2049,50.1368 C 175.1097,50.0615 174.9947,49.996 174.8598,49.9405 C 174.7249,49.885 174.5663,49.8572 174.3838,49.8572 C 174.1696,49.8572 173.9693,49.8969 173.7829,49.9762 C 173.5964,50.0555 173.4338,50.1666 173.295,50.3094 C 173.1561,50.4522 173.049,50.6208 172.9737,50.8152 C 172.8983,51.0095 172.8606,51.2217 172.8606,51.4518 z
M 174.5861,50.6783 C 174.721,50.6783 174.84,50.6981 174.9431,50.7378 C 175.0462,50.7775 175.1355,50.8251 175.2109,50.8806 C 175.2862,50.9361 175.3497,50.9976 175.4013,51.0651 C 175.4528,51.1325 175.4984,51.19 175.5381,51.2376 L 175.5381,52.499 L 175.2287,52.4871 C 174.7686,52.4712 174.4195,52.3919 174.1815,52.2491 C 173.9435,52.1063 173.8245,51.8762 173.8245,51.5589 C 173.8245,51.2654 173.8919,51.0452 174.0268,50.8985 C 174.1617,50.7517 174.3481,50.6783 174.5861,50.6783 z
M 182.2021,53.1178 C 182.2021,52.5069 182.1307,51.9952 181.9879,51.5827 C 181.8451,51.1702 181.6547,50.839 181.4167,50.5891 C 181.1787,50.3392 180.901,50.1607 180.5837,50.0536 C 180.2664,49.9464 179.9292,49.8929 179.5722,49.8929 C 179.3421,49.8929 179.1359,49.9147 178.9534,49.9583 C 178.7709,50.002 178.6123,50.0536 178.4774,50.1131 C 178.3425,50.1726 178.2295,50.234 178.1383,50.2975 C 178.047,50.361 177.9776,50.4125 177.93,50.4522 L 177.93,58.4133 L 178.8939,58.4966 L 178.8939,55.1646 L 178.9177,55.1646 C 178.9574,55.2281 179.0149,55.2995 179.0903,55.3788 C 179.1656,55.4581 179.2588,55.5335 179.3699,55.6049 C 179.481,55.6763 179.6139,55.7358 179.7686,55.7834 C 179.9233,55.831 180.0958,55.8548 180.2862,55.8548 C 180.8733,55.8548 181.3394,55.6347 181.6845,55.1944 C 182.0296,54.7541 182.2021,54.0619 182.2021,53.1178 z
M 181.2025,52.9988 C 181.2025,53.7128 181.0954,54.2305 180.8812,54.5518 C 180.667,54.8731 180.3735,55.0337 180.0006,55.0337 C 179.6991,55.0337 179.4671,54.9702 179.3045,54.8433 C 179.1418,54.7164 179.005,54.5855 178.8939,54.4506 L 178.8939,50.9401 C 178.9653,50.8925 179.0605,50.8429 179.1795,50.7914 C 179.2985,50.7398 179.4413,50.714 179.6079,50.714 C 179.838,50.714 180.0502,50.7517 180.2446,50.8271 C 180.4389,50.9024 180.6075,51.0293 180.7503,51.2079 C 180.8931,51.3864 181.0042,51.6224 181.0835,51.9159 C 181.1628,52.2094 181.2025,52.5704 181.2025,52.9988 z
M 187.093,53.7842 C 187.093,53.5383 187.0851,53.3261 187.0692,53.1476 C 187.0533,52.9691 187.0375,52.8124 187.0216,52.6775 L 184.1061,52.6775 C 184.1378,52.0032 184.2826,51.5073 184.5405,51.19 C 184.7983,50.8727 185.1692,50.714 185.6531,50.714 C 185.8197,50.714 185.9704,50.7338 186.1053,50.7735 C 186.2402,50.8132 186.3572,50.8608 186.4564,50.9163 C 186.5555,50.9718 186.6388,51.0274 186.7063,51.0829 C 186.7737,51.1384 186.8233,51.1821 186.855,51.2138 L 187.212,50.5355 C 187.1723,50.4958 187.1128,50.4383 187.0335,50.363 C 186.9542,50.2876 186.8471,50.2122 186.7122,50.1368 C 186.5773,50.0615 186.4107,49.996 186.2124,49.9405 C 186.0141,49.885 185.78,49.8572 185.5103,49.8572 C 185.1533,49.8572 184.83,49.9167 184.5405,50.0357 C 184.2509,50.1547 184.005,50.3392 183.8027,50.5891 C 183.6004,50.839 183.4437,51.1563 183.3326,51.5411 C 183.2215,51.9258 183.166,52.3879 183.166,52.9274 C 183.166,53.4351 183.2235,53.8735 183.3386,54.2424 C 183.4536,54.6113 183.6103,54.9147 183.8086,55.1527 C 184.0069,55.3907 184.237,55.5672 184.4988,55.6823 C 184.7606,55.7973 185.0422,55.8548 185.3437,55.8548 C 185.8911,55.8548 186.3195,55.6823 186.6289,55.3372 C 186.9383,54.9921 187.093,54.4744 187.093,53.7842 z
M 185.2842,55.0694 C 184.9431,55.0694 184.6694,54.9266 184.4631,54.641 C 184.2568,54.3554 184.1378,53.9429 184.1061,53.4034 L 186.1886,53.4034 C 186.1965,53.4431 186.2025,53.5006 186.2065,53.576 C 186.2104,53.6513 186.2124,53.7326 186.2124,53.8199 C 186.2124,54.2166 186.1331,54.524 185.9744,54.7422 C 185.8157,54.9603 185.5857,55.0694 185.2842,55.0694 z
M 191.496,50 L 191.496,53.6771 C 191.496,54.161 191.4147,54.5081 191.2521,54.7184 C 191.0894,54.9286 190.8415,55.0337 190.5083,55.0337 C 190.2227,55.0337 189.9847,54.9623 189.7943,54.8195 C 189.6039,54.6767 189.4532,54.5379 189.3421,54.403 L 189.3421,50 L 188.3782,50 L 188.3782,55.712 L 189.2588,55.712 L 189.2588,55.0694 L 189.2826,55.0694 C 189.3064,55.117 189.358,55.1864 189.4373,55.2777 C 189.5166,55.3689 189.6198,55.4562 189.7467,55.5395 C 189.8736,55.6228 190.0244,55.6961 190.1989,55.7596 C 190.3734,55.8231 190.5718,55.8548 190.7939,55.8548 C 191.0478,55.8548 191.2778,55.8171 191.4841,55.7418 C 191.6904,55.6664 191.8649,55.5454 192.0077,55.3788 C 192.1505,55.2122 192.2616,54.996 192.3409,54.7303 C 192.4202,54.4645 192.4599,54.1372 192.4599,53.7485 L 192.4599,50 L 191.496,50 z
" fill="#000000"/>
  </g>
  <g id="Adler-und-Saeulenelement">
    <path d="M37.173,29.339 C37.2,29.115 37.216,28.884 37.216,28.648 C37.216,28.519 37.217,28.369 37.201,28.199 C39.194,28.171 40.942,26.735 40.942,25.084 C40.942,24.244 40.394,23.61 40.085,23.231 C40.154,23.216 40.224,23.2 40.295,23.183 C40.587,23.437 41.415,24.339 41.415,25.478 C41.415,27.459 39.435,29.298 37.173,29.339 M35.165,22.44 C35.128,22.219 35.044,22.019 34.916,21.847 C34.923,21.645 35.006,21.452 35.331,21.611 C35.155,21.791 35.291,22.11 35.291,22.11 C35.291,22.11 35.651,21.943 35.576,21.705 C36.11,21.833 35.726,22.55 35.165,22.44 M34.702,23.457 C34.631,23.161 34.479,22.857 34.286,22.628 C34.11,22.42 33.819,22.173 33.427,22.173 C33.248,22.173 32.948,22.257 32.757,22.338 C32.686,22.208 32.547,21.895 32.547,21.754 C32.547,21.609 32.792,21.462 33.261,21.462 C34.293,21.462 34.909,21.928 34.909,22.71 C34.909,22.985 34.8,23.235 34.702,23.457 M37.352,36.757 C37.472,36.757 37.53,36.776 37.6,36.802 C37.897,37.61 39.042,39.135 39.09,39.2 L39.1,39.214 L39.117,39.21 C39.398,39.165 40.115,39.057 40.715,39.057 L40.729,39.057 C40.794,39.057 40.868,39.057 40.915,39.103 C40.954,39.142 40.973,39.21 40.973,39.307 C40.973,39.456 40.91,39.711 40.834,39.82 C40.624,39.591 40.283,39.488 39.737,39.488 C39.573,39.488 39.379,39.537 39.274,39.565 L39.231,39.574 L39.182,39.587 L39.497,39.902 C39.983,40.388 40.403,40.807 40.403,41.086 C40.403,41.254 40.239,41.473 40.089,41.57 C40.056,41.059 39.54,40.375 39.037,39.992 L38.994,39.96 L38.986,40.14 C38.979,40.262 38.968,40.445 38.968,40.641 C38.968,41.614 38.869,41.762 38.532,41.762 C38.48,41.762 38.401,41.747 38.352,41.729 C38.542,41.494 38.617,41.184 38.617,40.64 L38.614,40.389 L38.611,40.187 C38.611,39.964 38.634,39.799 38.652,39.666 L38.662,39.591 L38.609,39.584 C38.451,39.562 38.158,39.522 37.934,39.522 C37.453,39.522 37.127,39.566 36.891,39.788 C36.735,39.662 36.575,39.445 36.575,39.308 C36.575,39.105 36.701,39.089 36.867,39.089 C36.951,39.089 37.029,39.101 37.137,39.114 C37.344,39.145 37.655,39.191 38.296,39.191 L38.336,39.191 L38.323,39.152 C38.161,38.687 37.715,38.011 37,37.142 C37.064,36.909 37.127,36.757 37.352,36.757 M31.178,39.152 L31.165,39.191 L31.205,39.191 C31.845,39.191 32.157,39.145 32.364,39.114 C32.472,39.101 32.55,39.089 32.634,39.089 C32.799,39.089 32.926,39.105 32.926,39.308 C32.926,39.445 32.766,39.662 32.611,39.788 C32.374,39.566 32.048,39.522 31.568,39.522 C31.343,39.522 31.049,39.562 30.892,39.584 L30.867,39.587 L30.839,39.591 L30.848,39.666 C30.867,39.799 30.89,39.964 30.89,40.187 L30.887,40.389 L30.884,40.64 C30.884,41.184 30.959,41.494 31.15,41.729 C31.1,41.747 31.021,41.762 30.969,41.762 C30.631,41.762 30.533,41.614 30.533,40.641 C30.533,40.445 30.523,40.262 30.516,40.14 L30.506,39.959 L30.464,39.992 C29.962,40.375 29.444,41.059 29.413,41.57 C29.262,41.473 29.098,41.254 29.098,41.086 C29.098,40.807 29.518,40.388 30.004,39.902 L30.283,39.623 L30.319,39.587 L30.227,39.565 C30.122,39.537 29.928,39.488 29.763,39.488 C29.218,39.488 28.878,39.591 28.667,39.82 C28.591,39.711 28.528,39.456 28.528,39.307 C28.528,39.21 28.547,39.142 28.586,39.103 C28.633,39.057 28.707,39.057 28.772,39.057 L28.786,39.057 C29.386,39.057 30.104,39.165 30.384,39.21 L30.401,39.214 L30.411,39.2 C30.46,39.135 31.604,37.61 31.902,36.802 C31.97,36.776 32.029,36.757 32.149,36.757 C32.374,36.757 32.437,36.909 32.502,37.142 C31.786,38.011 31.34,38.687 31.178,39.152 M28.086,25.478 C28.086,24.339 28.915,23.437 29.207,23.183 C29.277,23.2 29.347,23.216 29.417,23.231 C29.107,23.61 28.559,24.244 28.559,25.084 C28.559,26.752 30.341,28.2 32.359,28.2 C32.346,28.343 32.339,28.493 32.339,28.648 C32.339,28.894 32.353,29.123 32.377,29.339 C30.095,29.325 28.086,27.473 28.086,25.478 M43.392,28.991 C44.416,30.61 45.217,30.583 46.427,30.583 C45.426,29.816 44.764,28.833 44.448,28.331 L42.578,25.339 C42.396,24.415 41.918,23.551 41.202,22.908 C41.443,22.817 41.643,22.721 41.763,22.63 C40.542,22.63 39.332,22.01 38.666,22.01 C38.238,22.01 37.963,22.266 37.963,22.604 C37.99,22.981 38.378,23.364 39.095,23.364 C39.257,23.364 39.465,23.343 39.693,23.305 C40.081,23.846 40.394,24.335 40.394,25.033 C40.394,26.343 38.828,27.364 37.247,27.364 C37.157,27.364 37.072,27.36 36.983,27.354 C36.84,27.029 36.363,26.484 36.363,25.864 C36.363,24.823 37.042,23.973 37.042,22.942 C37.042,22.301 36.73,21.904 36.61,21.739 C36.804,21.559 37.016,21.338 37.066,21.186 C36.953,21.235 36.819,21.241 36.624,21.241 C35.866,21.241 35.248,21.044 34.646,21.044 C34.302,21.044 34.21,21.15 34.21,21.251 C34.21,21.288 34.215,21.326 34.225,21.344 C34.097,21.294 33.977,21.261 33.834,21.235 C33.656,21.201 33.465,21.184 33.261,21.184 C32.529,21.184 32.269,21.491 32.269,21.754 C32.269,21.976 32.444,22.382 32.643,22.692 C32.928,22.548 33.271,22.451 33.427,22.451 C33.816,22.451 34.161,22.821 34.344,23.259 C34.083,23.291 34.033,23.302 33.769,23.302 C33.056,23.302 32.571,23.047 32.471,23.047 C32.462,23.047 32.443,23.052 32.443,23.068 C32.443,23.168 32.645,23.432 33.043,23.577 C33.568,23.769 34.354,23.849 34.485,23.871 C34.485,23.894 34.352,24.142 34.203,24.19 C34.172,24.2 34.147,24.201 34.11,24.193 C33.562,24.085 33.409,24.039 32.714,23.775 C32.693,23.767 32.68,23.78 32.68,23.802 C32.68,24.077 33.392,24.684 34.03,24.917 C33.497,25.597 32.832,26.293 32.518,27.354 C32.429,27.36 32.343,27.364 32.254,27.364 C30.673,27.364 29.107,26.343 29.107,25.033 C29.107,24.335 29.42,23.846 29.808,23.305 C30.036,23.343 30.243,23.364 30.406,23.364 C31.123,23.364 31.511,22.981 31.539,22.604 C31.539,22.266 31.264,22.01 30.835,22.01 C30.169,22.01 28.96,22.63 27.737,22.63 C27.858,22.721 28.058,22.817 28.298,22.908 C27.583,23.551 27.105,24.415 26.923,25.339 L25.053,28.331 C24.738,28.833 24.074,29.816 23.073,30.583 C24.283,30.583 25.085,30.61 26.109,28.991 L27.068,27.457 C27.139,27.656 27.226,27.85 27.329,28.04 L25.422,31.091 C25.105,31.597 24.447,32.571 23.442,33.343 C24.652,33.343 25.454,33.371 26.478,31.753 L28.119,29.125 C28.242,29.256 28.371,29.384 28.507,29.506 L26.191,33.214 C25.873,33.721 25.219,34.693 24.212,35.464 C25.422,35.464 26.224,35.493 27.247,33.874 L29.505,30.259 C29.654,30.353 29.806,30.444 29.964,30.53 L27.207,34.941 C26.889,35.448 26.235,36.417 25.228,37.191 C26.438,37.191 27.24,37.219 28.264,35.601 L31.102,31.058 C31.27,31.122 31.44,31.184 31.613,31.239 L28.406,36.372 C28.093,36.872 27.424,37.859 26.428,38.622 C27.637,38.622 28.44,38.65 29.463,37.032 L32.881,31.562 C32.916,31.568 32.95,31.573 32.984,31.58 C33.077,31.876 33.142,32.152 33.142,32.427 C33.142,34.146 32.014,35.664 30.66,36.836 C30.747,36.874 30.898,36.887 31.037,36.887 C31.317,36.887 31.497,36.872 31.624,36.85 C31.31,37.563 30.636,38.484 30.296,38.96 C29.853,38.88 29.208,38.818 28.786,38.818 C28.344,38.818 28.294,39.076 28.294,39.307 C28.294,39.708 28.482,40.027 28.7,40.205 C28.782,40 28.947,39.726 29.763,39.726 C29.779,39.726 29.807,39.728 29.845,39.731 C29.607,39.996 28.86,40.6 28.86,41.086 C28.86,41.408 29.213,41.891 29.678,41.891 C29.651,41.787 29.654,41.692 29.654,41.62 C29.654,41.226 30.003,40.765 30.298,40.443 C30.289,40.539 30.294,40.529 30.294,40.641 C30.294,41.572 30.378,42 30.969,42 C31.259,42 31.459,41.841 31.528,41.793 C31.144,41.44 31.124,41.162 31.124,40.64 C31.125,40.504 31.126,40.371 31.128,40.188 C31.129,40.068 31.127,39.91 31.108,39.796 C31.319,39.767 31.405,39.767 31.568,39.767 C31.568,39.767 32.407,39.7 32.61,40.137 C32.838,39.928 33.169,39.633 33.169,39.308 C33.169,39.093 33.067,38.85 32.634,38.85 C32.47,38.85 31.955,38.95 31.524,38.95 C31.64,38.693 32.155,37.939 32.602,37.392 C32.67,37.604 32.775,37.833 33.009,38.021 C33.042,37.669 33.248,36.556 33.798,35.905 C33.862,36.345 33.948,36.796 33.948,37.747 C33.948,40.061 33.392,41.77 32.211,42.096 C32.365,42.363 32.69,42.604 33.027,42.604 C33.459,42.604 33.694,42.115 33.934,41.654 C34.059,41.994 34.404,42.828 34.75,42.828 C35.096,42.828 35.442,41.994 35.567,41.654 C35.806,42.115 36.042,42.604 36.474,42.604 C36.811,42.604 37.136,42.363 37.29,42.096 C36.109,41.77 35.552,40.061 35.552,37.747 C35.552,36.796 35.638,36.345 35.702,35.905 C36.253,36.556 36.46,37.669 36.491,38.021 C36.726,37.833 36.832,37.604 36.899,37.392 C37.345,37.939 37.861,38.693 37.977,38.95 C37.546,38.95 37.03,38.85 36.867,38.85 C36.435,38.85 36.333,39.093 36.333,39.308 C36.333,39.633 36.664,39.928 36.892,40.137 C37.093,39.7 37.934,39.767 37.934,39.767 C38.096,39.767 38.182,39.767 38.394,39.796 C38.374,39.91 38.373,40.068 38.374,40.188 C38.376,40.371 38.376,40.504 38.377,40.64 C38.377,41.162 38.357,41.44 37.973,41.793 C38.042,41.841 38.242,42 38.532,42 C39.123,42 39.208,41.572 39.208,40.641 C39.208,40.529 39.211,40.539 39.203,40.443 C39.498,40.765 39.847,41.226 39.847,41.62 C39.847,41.692 39.851,41.787 39.822,41.891 C40.288,41.891 40.642,41.408 40.642,41.086 C40.642,40.6 39.895,39.996 39.655,39.731 C39.694,39.728 39.722,39.726 39.737,39.726 C40.554,39.726 40.719,40 40.801,40.205 C41.019,40.027 41.207,39.708 41.207,39.307 C41.207,39.076 41.157,38.818 40.715,38.818 C40.293,38.818 39.649,38.88 39.205,38.96 C38.864,38.484 38.192,37.563 37.877,36.85 C38.004,36.872 38.185,36.887 38.464,36.887 C38.604,36.887 38.754,36.874 38.841,36.836 C37.487,35.664 36.359,34.146 36.359,32.427 C36.359,32.152 36.424,31.876 36.517,31.58 C36.55,31.573 36.586,31.568 36.62,31.562 L40.038,37.032 C41.061,38.65 41.864,38.622 43.073,38.622 C42.077,37.859 41.408,36.872 41.095,36.372 L37.887,31.239 C38.061,31.184 38.232,31.122 38.4,31.058 L41.237,35.601 C42.261,37.219 43.063,37.191 44.273,37.191 C43.266,36.417 42.612,35.448 42.294,34.941 L39.538,30.53 C39.694,30.444 39.847,30.353 39.995,30.259 L42.254,33.874 C43.278,35.493 44.079,35.464 45.289,35.464 C44.282,34.693 43.629,33.721 43.31,33.214 L40.994,29.506 C41.13,29.384 41.26,29.256 41.381,29.125 L43.024,31.753 C44.047,33.371 44.849,33.343 46.059,33.343 C45.053,32.571 44.397,31.597 44.079,31.091 L42.173,28.04 C42.275,27.85 42.362,27.656 42.434,27.457 z" fill="#000000"/>
    <path d="M56,42 L52.5,42 L52.5,22 L56,22 z" fill="#000000"/>
    <path d="M56,62 L52.5,62 L52.5,42 L56,42 z" fill="#FF0000"/>
    <path d="M56,82 L52.5,82 L52.5,62 L56,62 z" fill="#FFCC00"/>
  </g>
</svg>
